<svg xmlns="http://www.w3.org/2000/svg" xmlns:xlink="http://www.w3.org/1999/xlink" width="14" height="14" viewBox="0 0 14 14"><defs><path id="a51ia" d="M598 959h-1v1a1 1 0 0 1-2 0v-1h-1a1 1 0 1 1 0-2h1v-1a1 1 0 0 1 2 0v1h1a1 1 0 1 1 0 2zm-8 0h-3v8h8v-3a1 1 0 1 1 2 0v4a1 1 0 0 1-1.029 1H586a1 1 0 0 1-1-1.04v-9.92-.04a1 1 0 0 1 1-1h4a1 1 0 1 1 0 2zm3 3h-4a1 1 0 1 1 0-2h4a1 1 0 1 1 0 2zm0 3h-4a1 1 0 0 1 0-2h4a1 1 0 1 1 0 2z"/></defs><g><g transform="translate(-585 -955)"><use fill="#6d67f9" xlink:href="#a51ia"/></g></g></svg>