<svg xmlns="http://www.w3.org/2000/svg" xmlns:xlink="http://www.w3.org/1999/xlink" width="18" height="14" viewBox="0 0 18 14"><defs><path id="eqkwa" d="M805 1031v10a1 1 0 0 1-1 1h-2.016v-.002A1 1 0 0 1 802 1040h.5a.5.5 0 0 0 .5-.5v-7a.5.5 0 0 0-.5-.5h-3.329l-.585-.586-1.415-1.414h-2.343l-1.414 1.414-.586.586H789.5a.5.5 0 0 0-.5.5v7a.5.5 0 0 0 .5.5h.5a1 1 0 1 1 0 2h-2a1 1 0 0 1-1-1v-10a1 1 0 0 1 1-1h4l1.707-1.707a1 1 0 0 1 .707-.293h3.172a1 1 0 0 1 .707.293L800 1030h4a1 1 0 0 1 1 1zm-9 4c-1.103 0-2 .897-2 2s.897 2 2 2 2-.897 2-2-.897-2-2-2c0 0 1.103 0 0 0zm0-2a4 4 0 1 1 0 8 4 4 0 0 1 0-8z"/></defs><g><g transform="translate(-787 -1028)"><use fill="#939499" xlink:href="#eqkwa"/></g></g></svg>