<svg xmlns="http://www.w3.org/2000/svg" xmlns:xlink="http://www.w3.org/1999/xlink" width="21" height="15" viewBox="0 0 21 15"><defs><path id="acmda" d="M31.5 238.999a1.5 1.5 0 1 1 0 3 1.5 1.5 0 0 1 0-3zm0 6a1.5 1.5 0 1 1-.001 3 1.5 1.5 0 0 1 0-3zm0 6a1.5 1.5 0 1 1 0 3 1.5 1.5 0 0 1 0-3zm5.5-12h13a1 1 0 0 1 1 1v1a1 1 0 0 1-1 1H37a1 1 0 0 1-1-1v-1a1 1 0 0 1 1-1zm0 6h13a1 1 0 0 1 1 1v1a1 1 0 0 1-1 1H37a1 1 0 0 1-1-1v-1a1 1 0 0 1 1-1zm0 6h13a1 1 0 0 1 1 1v1A1 1 0 0 1 50 254H37a1 1 0 0 1-1-1v-1a1 1 0 0 1 1-1z"/></defs><g><g transform="translate(-30 -239)"><use fill="#fff" xlink:href="#acmda"/></g></g></svg>