<svg xmlns="http://www.w3.org/2000/svg" xmlns:xlink="http://www.w3.org/1999/xlink" width="14" height="14" viewBox="0 0 14 14"><defs><path id="wvxma" d="M100.737 301.61l-2.04 2.045-.001.002c-2.445 2.45-4.892 4.897-7.343 7.342H88a.996.996 0 0 1-.202-.02.982.982 0 0 1-.28-.108 1 1 0 0 1-.326-.286 1.024 1.024 0 0 1-.064-.104A.983.983 0 0 1 87 310v-2.884l.005-.465a4675.94 4675.94 0 0 1 7.343-7.342l.009-.006 2.04-2.033a.938.938 0 0 1 .694-.286c.254.004.513.107.714.308l2.91 2.91c.402.402.412 1.032.022 1.408zm-5.654-.148zM89 307.402V309h1.606c1.98-2.025 3.96-4.05 5.937-6.078l-1.46-1.46c-2.03 1.978-4.057 3.959-6.083 5.94zm8.142-7.995l-.651.634 1.474 1.474.634-.65-1.457-1.458z"/></defs><g><g transform="translate(-87 -297)"><use fill="#828699" xlink:href="#wvxma"/></g></g></svg>