<svg xmlns="http://www.w3.org/2000/svg" xmlns:xlink="http://www.w3.org/1999/xlink" width="14" height="14" viewBox="0 0 14 14"><defs><path id="1jfaa" d="M441 351v8a1 1 0 0 1-1 1h-3v3a1 1 0 0 1-1 1h-8a1 1 0 0 1-1-1v-8a1 1 0 0 1 1-1h3v-3a1 1 0 0 1 1-1h8a1 1 0 0 1 1 1zm-6 5.5a.5.5 0 0 0-.5-.5h-5a.5.5 0 0 0-.5.5v5a.5.5 0 0 0 .5.5h5a.5.5 0 0 0 .5-.5zm4-4a.5.5 0 0 0-.5-.5h-5a.5.5 0 0 0-.5.5v1.5h3a1 1 0 0 1 1 1v3h1.5a.5.5 0 0 0 .5-.5z"/></defs><g><g transform="translate(-427 -350)"><use fill="#232226" xlink:href="#1jfaa"/></g></g></svg>