<svg xmlns="http://www.w3.org/2000/svg" xmlns:xlink="http://www.w3.org/1999/xlink" width="16" height="16" viewBox="0 0 16 16"><defs><path id="1u0qa" d="M1087 387h-8.39l1.904 1.142-.009.014c.29.176.495.48.495.843v8h6a1 1 0 0 1 0 2h-6v1a1 1 0 0 1-1 1 .974.974 0 0 1-.506-.157l-.009.015-5-3 .01-.015a.978.978 0 0 1-.328-.322c-.012-.019-.025-.034-.036-.053a.972.972 0 0 1-.131-.468v-11a1 1 0 0 1 1-1h12a1 1 0 0 1 0 2zm-3.707 4.292l2-2a1 1 0 1 1 1.414 1.414l-.293.293H1089a1 1 0 1 1 0 2h-2.586l.293.293a1 1 0 1 1-1.414 1.414l-2-2a.997.997 0 0 1 0-1.414z"/></defs><g><g transform="translate(-1074 -385)"><use fill="#fff" xlink:href="#1u0qa"/></g></g></svg>