<svg xmlns="http://www.w3.org/2000/svg" xmlns:xlink="http://www.w3.org/1999/xlink" width="16" height="16" viewBox="0 0 16 16"><defs><path id="8k2ka" d="M60.707 911.292l-2-2a1 1 0 1 0-1.414 1.414l.293.293H55a1 1 0 1 0 0 2h2.586l-.293.293a1 1 0 1 0 1.414 1.414l2-2a.997.997 0 0 0 0-1.414zM59 906a1 1 0 0 0-1-1H46a1 1 0 0 0-1 1v11c0 .173.055.327.131.468.011.019.024.034.036.053a.978.978 0 0 0 .327.322l-.009.015 5 3 .01-.015c.15.09.316.157.505.157a1 1 0 0 0 1-1v-1h6a1 1 0 0 0 0-2h-6v-8a.986.986 0 0 0-.494-.843l.008-.014-1.904-1.143H58a1 1 0 0 0 1-1z"/></defs><g><g transform="translate(-45 -905)"><use fill="#48474d" xlink:href="#8k2ka"/></g></g></svg>