<svg xmlns="http://www.w3.org/2000/svg" xmlns:xlink="http://www.w3.org/1999/xlink" width="14" height="14" viewBox="0 0 14 14"><defs><path id="q4iwa" d="M440.737 384.61l-2.04 2.045-.001.002a4624.42 4624.42 0 0 1-7.343 7.342H428a.98.98 0 0 1-.481-.129 1 1 0 0 1-.326-.285 1.024 1.024 0 0 1-.064-.104.983.983 0 0 1-.108-.28A1 1 0 0 1 427 393v-2.884l.005-.465c2.444-2.45 4.892-4.897 7.343-7.342.002-.002.006-.003.008-.006l2.04-2.033a.938.938 0 0 1 .694-.286c.255.004.514.107.715.308l2.91 2.91c.402.402.412 1.032.022 1.408zm-5.654-.148zm-6.083 5.94V392h1.605c1.981-2.025 3.96-4.05 5.938-6.078l-1.46-1.46c-2.03 1.978-4.058 3.959-6.083 5.94zm8.142-7.995l-.651.634 1.474 1.474.634-.65-1.457-1.458z"/></defs><g><g transform="translate(-427 -380)"><use fill="#939499" xlink:href="#q4iwa"/></g></g></svg>