<svg xmlns="http://www.w3.org/2000/svg" xmlns:xlink="http://www.w3.org/1999/xlink" width="16" height="14" viewBox="0 0 16 14"><defs><path id="47y4a" d="M1768 175.99v.02a.986.986 0 0 1-.986.987h-.822v-.012a.93.93 0 0 1-.267 0 6.997 6.997 0 0 1-5.916-6.914c0-1.514.485-2.912 1.302-4.057l-1.128-1.563a.91.91 0 0 1 .736-1.443l1.798-.002 2.374-.004a.91.91 0 0 1 .877 1.154l-.673 2.422-.489 1.756a.909.909 0 0 1-1.613.289l-.613-.85a4.944 4.944 0 0 0-.573 2.298 5.005 5.005 0 0 0 4.185 4.932h.822c.544 0 .986.442.986.987zm7.817-.441a.91.91 0 0 1-.736 1.442l-1.798.003-2.375.003a.91.91 0 0 1-.877-1.154l.674-2.422.488-1.755a.909.909 0 0 1 1.613-.29l.613.85c.36-.689.574-1.467.574-2.297a5.005 5.005 0 0 0-4.185-4.933h-.822a.986.986 0 0 1-.986-.987v-.02c0-.545.441-.987.986-.987h.822v.013a.931.931 0 0 1 .267-.001 6.997 6.997 0 0 1 5.915 6.915 6.954 6.954 0 0 1-1.302 4.056z"/></defs><g><g transform="translate(-1760 -163)"><use fill="#828699" xlink:href="#47y4a"/></g></g></svg>